<svg xmlns="http://www.w3.org/2000/svg" viewBox="0 0 508.58 387.69"><defs><style>.cls-1,.cls-13,.cls-14,.cls-15,.cls-2,.cls-3,.cls-4,.cls-5,.cls-6{fill:#e75a7c;}.cls-1{opacity:0.36;}.cls-2{opacity:0.26;}.cls-3{opacity:0.34;}.cls-4{opacity:0.43;}.cls-5{opacity:0.37;}.cls-6{opacity:0.55;}.cls-7{fill:#fff;}.cls-8{fill:#e6e6e6;}.cls-10,.cls-12,.cls-9{fill:none;}.cls-9{stroke:#000;}.cls-10,.cls-9{stroke-linecap:round;stroke-linejoin:round;}.cls-10{stroke:gray;}.cls-11{fill:#4d4d4d;}.cls-12{stroke:#4d4d4d;stroke-miterlimit:10;stroke-width:2px;}.cls-13{opacity:0.75;}.cls-14{opacity:0.68;}.cls-15{opacity:0.74;}</style></defs><g id="Layer_2" data-name="Layer 2"><rect class="cls-1" x="105.39" y="217.05" width="124.92" height="52.3" rx="26.15"/><rect class="cls-2" x="306.77" y="122.48" width="135.13" height="53.35" rx="26.68"/><rect class="cls-2" x="325.76" y="281.19" width="97.14" height="43.71" rx="21.86"/><rect class="cls-3" x="105.39" y="85.71" width="97.14" height="33.81" rx="16.91"/><rect class="cls-4" x="393.13" y="209.15" width="115.45" height="43.71" rx="21.86"/><rect class="cls-2" y="143.34" width="115.45" height="43.71" rx="21.86"/><path class="cls-5" d="M681.45,642.2l1.25,6.65a.92.92,0,0,0,.73.7l8,1.61a.85.85,0,0,1-.15,1.7l-7.83.38a.91.91,0,0,0-.89.74l-1.12,7.57a1,1,0,0,1-1.89,0l-.89-7.37a.92.92,0,0,0-.89-.77l-8-.46a.85.85,0,0,1-.13-1.7l8.27-1.52a.93.93,0,0,0,.76-.74l.94-6.73A1,1,0,0,1,681.45,642.2Z" transform="translate(-235.27 -312.36)"/><path class="cls-4" d="M382.77,318.54l1.26,6.65a.9.9,0,0,0,.73.7l8,1.61a.85.85,0,0,1-.16,1.7l-7.83.38a.92.92,0,0,0-.89.74l-1.12,7.57a1,1,0,0,1-1.89,0L380,330.5a.91.91,0,0,0-.88-.77l-8-.46a.85.85,0,0,1-.13-1.7l8.27-1.52a.9.9,0,0,0,.75-.74l.94-6.73A1,1,0,0,1,382.77,318.54Z" transform="translate(-235.27 -312.36)"/><path class="cls-6" d="M409.4,680l1.25,6.65a.91.91,0,0,0,.73.7l8,1.61a.85.85,0,0,1-.16,1.7l-7.82.38a.91.91,0,0,0-.89.74l-1.12,7.57a1,1,0,0,1-1.89,0l-.9-7.36a.91.91,0,0,0-.88-.77l-8-.46a.85.85,0,0,1-.13-1.7l8.27-1.53a.89.89,0,0,0,.75-.73l.94-6.73A1,1,0,0,1,409.4,680Z" transform="translate(-235.27 -312.36)"/></g><g id="Layer_1" data-name="Layer 1"><path class="cls-7" d="M572.56,666.8c-6.67,1.83-13.25,4.12-20,5.4-16,3-32.27,3.35-48.48,3.5-11.34.11-22.67-.34-34-1.26-14.15-1.14-28-3.46-40.94-9.23-9-4-16.38-9.93-19.57-19.9-3-9.51-1.49-18.82,1.09-28q6.4-22.84,13.51-45.49c1.92-6.12,2.86-12.67,5.21-18.41l-1.28-1.61c-1.67-5-3.6-9.93-4.95-15-3.43-12.89-7-25.77-9.09-39-1.51-9.31-3.15-18.57-4.19-28-1.21-11.05-2.39-22.1-.6-33,2.27-13.8,6.4-27.22,10.69-40.57,1.93-6,5.54-11.7,4.64-18.46a72.13,72.13,0,0,1-1-8c-.16-6.7,4.23-10.68,8.94-14.52,8.41-6.86,18.47-10.13,28.52-13.47l.23-.62a17.62,17.62,0,0,1-.75-12.89c4.22-13.28,10-14.24,22.53-15.85,7.25-.93,15.28,6.92,17,15.36l2.52,8A125,125,0,0,1,552,340.43c6.38,1.94,12.56,4.94,17,10.36,2.86,3.45,4.12,11.59,2,14l1,1c4.74,12.43,10.38,24.49,15.29,36.88,7,17.71,5.19,34.31-1.8,51.11-5.14,12.35-10.18,24.74-15.65,36.94a6.52,6.52,0,0,0-.29,5c6.22,19.62,10.07,39.75,13.52,60,1.92,11.31,3.67,22.61,5,34,1.87,15.64,3.38,31.27,4,47,.45,12.23-5.11,20.78-15.08,27-2,1.25-3.5,2.18-4.24,5-.83,3.08-4.25,4.85-7.2,6.64-9.43,5.71-20,7.2-30.54,9-16.43,2.75-33,2.16-49.5,1.84-15.5-.31-30.87-2.39-45.47-8-5.78-2.21-11.3-5.25-14-11.43a1.51,1.51,0,0,1,.46-2" transform="translate(-235.27 -312.36)"/><polygon class="cls-8" points="317.39 235.28 304.29 235.02 318.58 208.14 328.92 189.24 333.79 183.02 338.34 199.3 317.39 235.28"/><polygon class="cls-8" points="200.77 226.72 194.08 241.64 183.65 209.02 176.19 170.2 173.17 132.46 185.79 183.02 207.78 212.6 200.77 226.72"/><polygon class="cls-8" points="272.5 305.87 292.7 297.09 307.5 289.2 315.74 282.27 317.39 277.13 312.07 267.52 302.79 256.52 317.39 266.72 325.76 281.19 312.35 293.02 272.5 305.87"/><polygon class="cls-8" points="192.63 67.47 191.36 64.33 193.79 59.52 207 49.47 223.09 43.65 232.87 41.78 235.14 45.24 224.4 46.49 211.84 50.77 201.17 57.78 192.63 67.47"/><path class="cls-9" d="M425.06,377.38c9.43,8.84,21.24,12.4,33.51,14.4,9.89,1.61,19.93,2.71,30,2.06,22.63-1.45,44.88-4.6,65.53-14.91,6.69-3.33,12.08-8.08,17-13.56,2.14-2.4.88-10.55-2-14C564.57,346,558.39,343,552,341a125,125,0,0,0-49.45-4.64" transform="translate(-235.27 -312.36)"/><path class="cls-9" d="M572.06,366.38c4.74,12.44,10.38,24.5,15.29,36.89,7,17.7,5.19,34.31-1.8,51.11-5.14,12.35-10.18,24.74-15.65,36.93a6.54,6.54,0,0,0-.29,5.06c6.22,19.61,10.07,39.75,13.52,60,1.92,11.3,3.67,22.61,5,34,1.87,15.63,3.38,31.26,4,47,.45,12.23-5.11,20.78-15.08,27-2,1.24-3.5,2.17-4.24,5-.83,3.09-4.25,4.86-7.2,6.65-9.43,5.71-20,7.2-30.54,9-16.43,2.76-33,2.17-49.5,1.84-15.5-.3-30.87-2.38-45.47-8-5.78-2.21-11.3-5.26-14-11.44a1.51,1.51,0,0,1,.46-2" transform="translate(-235.27 -312.36)"/><path class="cls-9" d="M461.06,342.38C451,345.73,441,349,432.54,355.86c-4.71,3.84-9.1,7.82-8.94,14.52a72.42,72.42,0,0,0,1,8c.9,6.76-2.71,12.46-4.64,18.46-4.29,13.35-8.42,26.77-10.69,40.57-1.79,10.89-.61,21.95.6,33,1,9.41,2.68,18.67,4.19,28,2.13,13.21,5.66,26.08,9.09,39,1.35,5.08,3.28,10,4.95,15" transform="translate(-235.27 -312.36)"/><path class="cls-9" d="M421.06,644.88c15.74,8.67,32.81,12.68,50.48,15.12a241.17,241.17,0,0,0,44.51,1.74c22.25-1.08,44.13-4.5,64.51-14.36" transform="translate(-235.27 -312.36)"/><path class="cls-9" d="M573.06,371.88c-4.43,10.39-13.4,15.68-23,19.94-11.17,4.95-23,7.93-35,9.94a171.33,171.33,0,0,1-43,1.92c-12.16-1.06-24.36-2.71-35.61-8.61-4.81-2.52-8-6.41-11.9-9.69" transform="translate(-235.27 -312.36)"/><path class="cls-9" d="M448.56,513.88C442.06,527.22,435,540.3,429.34,554c-2.35,5.74-3.29,12.29-5.21,18.41Q417,595,410.62,617.9c-2.58,9.17-4.14,18.49-1.09,28,3.19,10,10.59,15.91,19.57,19.9,13,5.78,26.79,8.09,40.94,9.24,11.35.92,22.68,1.37,34,1.26,16.21-.16,32.48-.47,48.48-3.5,6.77-1.28,13.35-3.57,20-5.41" transform="translate(-235.27 -312.36)"/><path class="cls-10" d="M571.06,431.88A139.26,139.26,0,0,1,530.59,448a185.38,185.38,0,0,1-49.54,4,200.13,200.13,0,0,1-27-3.08,98.21,98.21,0,0,1-25-8" transform="translate(-235.27 -312.36)"/><path class="cls-9" d="M508.56,365.38c2.33.5,4.65,1.07,7,1.49,3.62.64,6.8,2.09,7.41,6s-.51,7.71-4.41,10a21.68,21.68,0,0,1-5,2.09c-9.05,2.67-18.23,3.88-27.52,2.31-8.3-1.4-12.59-10.05-5-16.42" transform="translate(-235.27 -312.36)"/><path class="cls-9" d="M538.06,568.88a88.92,88.92,0,0,1,12,15c3.61,5.38,3.58,8.54-1.06,13a45.09,45.09,0,0,1-10.44,7.08c-10.73,5.61-21.35,11.44-33,15-.44.13-.68,1-1,1.45" transform="translate(-235.27 -312.36)"/><path class="cls-9" d="M502.06,336.38c-1.35-2.49-1.48-5.29-2-8-1.69-8.45-9.72-16.3-17-15.37-12.54,1.62-18.31,2.58-22.53,15.86a17.62,17.62,0,0,0,.75,12.89c5,10.06,10.76,19.87,19.26,27.62,5.71,5.2,18.84,4.49,24,0,3.64-3.14,4-6.42,2.66-11.08-2.06-7-5.77-13.76-5.18-21.45" transform="translate(-235.27 -312.36)"/><path class="cls-9" d="M566.06,359.88c-7.83-6-17.16-8.18-26.52-9.92a137.34,137.34,0,0,0-31-2.08" transform="translate(-235.27 -312.36)"/><path class="cls-9" d="M569.06,495.38c-4.65,4.06-6.54,9.91-9.42,15.05-6.85,12.23-14.47,24.05-20.08,36.95" transform="translate(-235.27 -312.36)"/><path class="cls-9" d="M495.56,336.38c.87-8-5.35-14-13-12.47a58.63,58.63,0,0,0-7.49,2c-4.72,1.62-9,8.37-8,12.47,1.81,7.83,5.59,11.46,12.47,10.35,6.72-1.07,13.5-3,16.49-10.36.15-.38-.3-1-.46-1.49" transform="translate(-235.27 -312.36)"/><path class="cls-9" d="M462.56,354.88c-12.26,3-23.41,8.18-33,16.5" transform="translate(-235.27 -312.36)"/><path class="cls-9" d="M495.06,336.38c-8.8.73-17.58,1.63-26,4.5" transform="translate(-235.27 -312.36)"/><path class="cls-9" d="M492.06,357.88c-1.61.84-3.33,1.49-4.52,3-1.06,1.34-2.09,2.9-1.39,4.47s2.16,3.2,4.41,3c1.5-.11,3-.39,4.5-.47,3.2-.19,6.4-.64,6.92-4.53.37-2.78-3.62-5.35-7.92-5.49h-1.5" transform="translate(-235.27 -312.36)"/><circle class="cls-11" cx="237.76" cy="175.84" r="3.97"/><circle class="cls-11" cx="285.39" cy="175.84" r="3.97"/><path class="cls-12" d="M485.55,529.41s3.7-9,12-8.91a11,11,0,0,1,11,8.46" transform="translate(-235.27 -312.36)"/><path class="cls-4" d="M636.77,425.16l1.25,6.65a.94.94,0,0,0,.74.7l8,1.61a.85.85,0,0,1-.16,1.69l-7.83.39a.91.91,0,0,0-.89.74l-1.12,7.56a1,1,0,0,1-1.89,0l-.89-7.37a.93.93,0,0,0-.89-.76l-8-.46a.85.85,0,0,1-.13-1.7l8.27-1.53a.9.9,0,0,0,.76-.73l.94-6.74A1,1,0,0,1,636.77,425.16Z" transform="translate(-235.27 -312.36)"/><path class="cls-13" d="M356.53,435.14l1.25,6.65a.94.94,0,0,0,.73.7l8,1.61a.85.85,0,0,1-.15,1.69l-7.83.39a.91.91,0,0,0-.89.74l-1.12,7.56a1,1,0,0,1-1.89,0l-.89-7.37a.93.93,0,0,0-.89-.76l-8-.46a.85.85,0,0,1-.13-1.7l8.27-1.53a.89.89,0,0,0,.75-.73l.94-6.74A1,1,0,0,1,356.53,435.14Z" transform="translate(-235.27 -312.36)"/><path class="cls-14" d="M598.9,328.94l1.25,6.66a.92.92,0,0,0,.73.69l8,1.61a.85.85,0,0,1-.16,1.7l-7.83.38a.93.93,0,0,0-.89.75l-1.12,7.56a1,1,0,0,1-1.89,0l-.89-7.37a.92.92,0,0,0-.89-.76l-8-.47a.85.85,0,0,1-.13-1.7l8.27-1.52a.91.91,0,0,0,.76-.74L597,329A1,1,0,0,1,598.9,328.94Z" transform="translate(-235.27 -312.36)"/><path class="cls-4" d="M698.73,378.38,700,385a.89.89,0,0,0,.73.69l8,1.61a.85.85,0,0,1-.16,1.7l-7.83.38a.93.93,0,0,0-.89.75l-1.12,7.56a1,1,0,0,1-1.89,0l-.89-7.37a.91.91,0,0,0-.89-.76l-8-.46a.85.85,0,0,1-.13-1.7l8.27-1.53a.9.9,0,0,0,.76-.73l.94-6.74A1,1,0,0,1,698.73,378.38Z" transform="translate(-235.27 -312.36)"/><path class="cls-15" d="M344.87,575l1.26,6.65a.9.9,0,0,0,.73.7l8,1.61a.85.85,0,0,1-.16,1.7l-7.83.38a.92.92,0,0,0-.89.75l-1.12,7.56a1,1,0,0,1-1.89,0l-.89-7.37a.91.91,0,0,0-.88-.77l-8-.46A.85.85,0,0,1,333,584l8.27-1.52a.9.9,0,0,0,.75-.74L343,575A1,1,0,0,1,344.87,575Z" transform="translate(-235.27 -312.36)"/></g></svg>